<svg width="48" height="48" viewBox="0 0 48 48" fill="none" xmlns="http://www.w3.org/2000/svg">
<rect width="48" height="48" rx="2" fill="#FFE8EE"/>
<g clip-path="url(#clip0_201_9115)">
<path d="M26.9818 26.9639C27.5555 26.9639 28.018 27.3601 28.018 27.85C28.018 28.3383 27.5555 28.7338 26.9818 28.7338H24.9087V29.6199H26.9811C27.5555 29.6199 28.0173 30.016 28.0173 30.5052C28.0173 30.9951 27.5555 31.3913 26.9811 31.3913H24.9087V33.2518C24.9087 33.7417 24.4439 34.1372 23.8725 34.1372C23.3003 34.1372 22.8363 33.741 22.8363 33.2518V31.3905H20.7632C20.191 31.3905 19.727 30.9943 19.727 30.5044C19.727 30.0145 20.191 29.6191 20.7632 29.6191H22.8356V28.733H20.7632C20.191 28.733 19.727 28.3376 19.727 27.8492C19.727 27.3593 20.191 26.9639 20.7632 26.9639H22.8356V26.4465L19.9289 24.0443C19.8328 23.9717 19.7543 23.8782 19.6996 23.7709C19.6448 23.6636 19.6151 23.5453 19.6126 23.4248C19.6102 23.3044 19.6352 23.185 19.6856 23.0756C19.736 22.9662 19.8106 22.8696 19.9038 22.7932C20.1088 22.6223 20.3663 22.5268 20.6332 22.5228C20.9001 22.5188 21.1603 22.6064 21.3704 22.7711L23.9533 24.9075L26.5361 22.7711C26.746 22.6069 27.0058 22.5195 27.2722 22.5235C27.5387 22.5275 27.7957 22.6227 28.0005 22.7932C28.094 22.8693 28.1691 22.9656 28.2199 23.075C28.2707 23.1843 28.2959 23.3038 28.2937 23.4243C28.2915 23.5448 28.2619 23.6633 28.2071 23.7707C28.1524 23.8781 28.0739 23.9717 27.9776 24.0443L24.9087 26.5783V26.9639H26.9811H26.9818ZM31.0565 18.1837H17.1236C12.6017 20.6104 8.76172 25.341 8.76172 31.5642C8.76172 38.4236 15.9373 39.9893 24.1308 39.9893C32.3205 39.9893 39.1448 38.3482 39.1448 31.4835C39.1418 25.7189 35.8268 20.7346 31.0565 18.1837ZM17.6897 15.8683C17.2356 15.8683 16.8653 16.1479 16.8653 16.487C16.8653 16.8283 17.2356 17.1026 17.6897 17.1026H30.3639C30.8211 17.1026 31.1875 16.8283 31.1875 16.487C31.1875 16.1479 30.818 15.8683 30.3647 15.8683H17.6889H17.6897ZM18.1651 15.5452L29.7582 15.5148C30.2946 15.4576 32.2679 13.3738 32.722 11.1727C33.1593 9.08965 31.8443 8.42985 28.5483 8.42985C25.2432 8.42985 25.9266 11.351 25.2599 11.351C24.8752 11.351 24.5239 9.1087 23.0184 8.15709C21.9441 7.47671 20.4561 9.22603 19.0299 9.23822C17.3689 9.25346 15.1975 9.06146 15.1975 11.2877C15.1975 13.1346 17.5975 15.5452 18.1651 15.5452Z" fill="#FF3369"/>
<mask id="mask0_201_9115" style="mask-type:alpha" maskUnits="userSpaceOnUse" x="8" y="8" width="32" height="32">
<path d="M26.9818 26.9639C27.5555 26.9639 28.018 27.3601 28.018 27.85C28.018 28.3383 27.5555 28.7338 26.9818 28.7338H24.9087V29.6199H26.9811C27.5555 29.6199 28.0173 30.016 28.0173 30.5052C28.0173 30.9951 27.5555 31.3913 26.9811 31.3913H24.9087V33.2518C24.9087 33.7417 24.4439 34.1372 23.8725 34.1372C23.3003 34.1372 22.8363 33.741 22.8363 33.2518V31.3905H20.7632C20.191 31.3905 19.727 30.9943 19.727 30.5044C19.727 30.0145 20.191 29.6191 20.7632 29.6191H22.8356V28.733H20.7632C20.191 28.733 19.727 28.3376 19.727 27.8492C19.727 27.3593 20.191 26.9639 20.7632 26.9639H22.8356V26.4465L19.9289 24.0443C19.8328 23.9717 19.7543 23.8782 19.6996 23.7709C19.6448 23.6636 19.6151 23.5453 19.6126 23.4248C19.6102 23.3044 19.6352 23.185 19.6856 23.0756C19.736 22.9662 19.8106 22.8696 19.9038 22.7932C20.1088 22.6223 20.3663 22.5268 20.6332 22.5228C20.9001 22.5188 21.1603 22.6064 21.3704 22.7711L23.9533 24.9075L26.5361 22.7711C26.746 22.6069 27.0058 22.5195 27.2722 22.5235C27.5387 22.5275 27.7957 22.6227 28.0005 22.7932C28.094 22.8693 28.1691 22.9656 28.2199 23.075C28.2707 23.1843 28.2959 23.3038 28.2937 23.4243C28.2915 23.5448 28.2619 23.6633 28.2071 23.7707C28.1524 23.8781 28.0739 23.9717 27.9776 24.0443L24.9087 26.5783V26.9639H26.9811H26.9818ZM31.0565 18.1837H17.1236C12.6017 20.6104 8.76172 25.341 8.76172 31.5642C8.76172 38.4236 15.9373 39.9893 24.1308 39.9893C32.3205 39.9893 39.1448 38.3482 39.1448 31.4835C39.1418 25.7189 35.8268 20.7346 31.0565 18.1837ZM17.6897 15.8683C17.2356 15.8683 16.8653 16.1479 16.8653 16.487C16.8653 16.8283 17.2356 17.1026 17.6897 17.1026H30.3639C30.8211 17.1026 31.1875 16.8283 31.1875 16.487C31.1875 16.1479 30.818 15.8683 30.3647 15.8683H17.6889H17.6897ZM18.1651 15.5452L29.7582 15.5148C30.2946 15.4576 32.2679 13.3738 32.722 11.1727C33.1593 9.08965 31.8443 8.42985 28.5483 8.42985C25.2432 8.42985 25.9266 11.351 25.2599 11.351C24.8752 11.351 24.5239 9.1087 23.0184 8.15709C21.9441 7.47671 20.4561 9.22603 19.0299 9.23822C17.3689 9.25346 15.1975 9.06146 15.1975 11.2877C15.1975 13.1346 17.5975 15.5452 18.1651 15.5452Z" fill="#FF3369"/>
</mask>
<g mask="url(#mask0_201_9115)">
<circle cx="14" cy="16" r="26" fill="#FF4D7C"/>
<circle cx="13" cy="14" r="20" fill="#FF5F89"/>
<circle cx="11" cy="6" r="16" fill="#FF7196"/>
</g>
</g>
<defs>
<clipPath id="clip0_201_9115">
<rect width="32" height="32" fill="white" transform="translate(8 8)"/>
</clipPath>
</defs>
</svg>
