<svg width="48" height="48" viewBox="0 0 48 48" fill="none" xmlns="http://www.w3.org/2000/svg">
<rect width="48" height="48" rx="2" fill="#FFE8EE"/>
<path d="M40.5231 36.3509L38.0508 15.7919C37.9193 14.6954 36.9078 13.8659 35.702 13.8659H33.9641C33.9055 9.51821 30.0271 6 25.2667 6C20.5063 6 16.63 9.52023 16.5693 13.8659H14.8315C13.6277 13.8659 12.6162 14.6954 12.4826 15.7919L10.0144 36.3509C9.86067 37.6315 10.9552 38.7503 12.3633 38.7503H38.1763C39.5823 38.7523 40.6769 37.6315 40.5231 36.3509ZM25.2688 8.73931C28.3783 8.73931 30.9153 11.0295 30.974 13.8659H19.5636C19.6222 11.0295 22.1592 8.73931 25.2688 8.73931Z" fill="#FF3369"/>
<path d="M38.0508 15.7939C37.9193 14.6973 36.9078 13.8678 35.702 13.8678H33.9641C33.9055 9.52016 30.0271 6.00195 25.2667 6.00195C20.5063 6.00195 16.63 9.52218 16.5693 13.8678H14.8315C13.6277 13.8678 12.6162 14.6973 12.4826 15.7939L10.0144 36.3528C9.86067 37.6335 10.9552 38.7522 12.3633 38.7522H27.8523C33.2014 35.6548 37.276 30.6072 39.1089 24.5823L38.0508 15.7939ZM25.2688 8.74126C28.3783 8.74126 30.9153 11.0314 30.974 13.8678H19.5636C19.6222 11.0314 22.1592 8.74126 25.2688 8.74126Z" fill="#FF4D7C"/>
<mask id="mask0_201_9093" style="mask-type:alpha" maskUnits="userSpaceOnUse" x="10" y="6" width="31" height="33">
<path d="M40.5231 36.3509L38.0508 15.7919C37.9193 14.6954 36.9078 13.8659 35.702 13.8659H33.9641C33.9055 9.51821 30.0271 6 25.2667 6C20.5063 6 16.63 9.52023 16.5693 13.8659H14.8315C13.6277 13.8659 12.6162 14.6954 12.4826 15.7919L10.0144 36.3509C9.86067 37.6315 10.9552 38.7503 12.3633 38.7503H38.1763C39.5823 38.7523 40.6769 37.6315 40.5231 36.3509ZM25.2688 8.73931C28.3783 8.73931 30.9153 11.0295 30.974 13.8659H19.5636C19.6222 11.0295 22.1592 8.73931 25.2688 8.73931Z" fill="#FF3369"/>
</mask>
<g mask="url(#mask0_201_9093)">
<circle cx="10.3033" cy="9.74271" r="24.1763" fill="#FF5F89"/>
</g>
<path d="M22.9015 13.8679H19.5634C19.622 11.0315 22.159 8.74133 25.2686 8.74133C25.3778 8.74133 25.4851 8.75145 25.5923 8.75549C25.9261 7.88555 26.2154 6.99133 26.4501 6.07486C26.0637 6.0263 25.6692 6 25.2686 6C20.5082 6 16.6319 9.52023 16.5712 13.8659H14.8333C13.6296 13.8659 12.618 14.6954 12.4845 15.7919L11.6348 22.8506C16.2293 21.0358 20.142 17.8798 22.9015 13.8679Z" fill="#FF7196"/>
<path d="M22.1184 24.056V22.3635H28.3349C28.9932 22.3635 29.5646 22.7357 29.8503 23.2812C30.0649 22.9771 30.191 22.6061 30.191 22.2056C30.191 21.1741 29.3549 20.338 28.3234 20.338H22.1184V18.6387C22.1184 18.3885 21.8363 18.2423 21.6319 18.3866L17.7947 21.0953C17.6205 21.2182 17.6205 21.4765 17.7947 21.5994L21.6319 24.3081C21.8363 24.4524 22.1184 24.3062 22.1184 24.056ZM32.1901 28.4005L28.3529 25.6919C28.1485 25.5476 27.8664 25.6937 27.8664 25.9439V27.6366H21.65C20.9916 27.6366 20.4202 27.2643 20.1346 26.7189C19.92 27.023 19.7938 27.394 19.7938 27.7944C19.7938 28.8259 20.63 29.662 21.6614 29.662H27.8664V31.3613C27.8664 31.6115 28.1486 31.7577 28.3529 31.6134L32.1901 28.9047C32.3643 28.7817 32.3643 28.5235 32.1901 28.4005Z" fill="#FFE8EE"/>
</svg>
