<svg width="48" height="48" viewBox="0 0 48 48" fill="none" xmlns="http://www.w3.org/2000/svg">
<rect width="48" height="48" rx="2" fill="#FFE8EE"/>
<path d="M19.6552 12.2732L23.6008 8.32755C23.9383 7.9901 24.3961 7.80054 24.8734 7.80054C25.3507 7.80054 25.8084 7.9901 26.146 8.32755L30.0934 12.2732H35.6734C36.1508 12.2732 36.6086 12.4628 36.9462 12.8004C37.2838 13.1379 37.4734 13.5958 37.4734 14.0732V19.6532L41.4208 23.6006C41.7582 23.9381 41.9478 24.3959 41.9478 24.8732C41.9478 25.3504 41.7582 25.8082 41.4208 26.1458L37.4734 30.0932V35.6732C37.4734 36.1505 37.2838 36.6084 36.9462 36.9459C36.6086 37.2835 36.1508 37.4732 35.6734 37.4732H30.0934L26.146 41.4206C25.8084 41.758 25.3507 41.9476 24.8734 41.9476C24.3961 41.9476 23.9383 41.758 23.6008 41.4206L19.6552 37.4732H14.0752C13.8388 37.4732 13.6048 37.4266 13.3864 37.3361C13.168 37.2457 12.9696 37.1131 12.8024 36.9459C12.6353 36.7788 12.5027 36.5804 12.4122 36.362C12.3218 36.1436 12.2752 35.9095 12.2752 35.6732V30.0932L8.3278 26.1458C7.99035 25.8082 7.80078 25.3504 7.80078 24.8732C7.80078 24.3959 7.99035 23.9381 8.3278 23.6006L12.2734 19.655V14.075C12.2734 13.8386 12.32 13.6045 12.4104 13.3861C12.5009 13.1677 12.6335 12.9693 12.8006 12.8022C12.9678 12.635 13.1662 12.5024 13.3846 12.412C13.603 12.3215 13.837 12.275 14.0734 12.275H19.6534L19.6552 12.2732ZM30.5632 17.963L17.7004 30.8276L18.973 32.1002L31.8376 19.2374L30.5632 17.963ZM17.7004 17.7002V21.3002H21.3004V17.7002H17.7004ZM28.5004 28.5002V32.1002H32.1004V28.5002H28.5004Z" fill="#FF4D7C"/>
<mask id="mask0_201_9055" style="mask-type:alpha" maskUnits="userSpaceOnUse" x="7" y="7" width="35" height="35">
<path d="M19.6552 12.2729L23.6008 8.32731C23.9383 7.98986 24.3961 7.80029 24.8734 7.80029C25.3507 7.80029 25.8084 7.98986 26.146 8.32731L30.0934 12.2729H35.6734C36.1508 12.2729 36.6086 12.4626 36.9462 12.8001C37.2838 13.1377 37.4734 13.5955 37.4734 14.0729V19.6529L41.4208 23.6003C41.7582 23.9379 41.9478 24.3956 41.9478 24.8729C41.9478 25.3502 41.7582 25.808 41.4208 26.1455L37.4734 30.0929V35.6729C37.4734 36.1503 37.2838 36.6081 36.9462 36.9457C36.6086 37.2833 36.1508 37.4729 35.6734 37.4729H30.0934L26.146 41.4203C25.8084 41.7578 25.3507 41.9473 24.8734 41.9473C24.3961 41.9473 23.9383 41.7578 23.6008 41.4203L19.6552 37.4729H14.0752C13.8388 37.4729 13.6048 37.4264 13.3864 37.3359C13.168 37.2454 12.9696 37.1128 12.8024 36.9457C12.6353 36.7786 12.5027 36.5801 12.4122 36.3617C12.3218 36.1434 12.2752 35.9093 12.2752 35.6729V30.0929L8.3278 26.1455C7.99035 25.808 7.80078 25.3502 7.80078 24.8729C7.80078 24.3956 7.99035 23.9379 8.3278 23.6003L12.2734 19.6547V14.0747C12.2734 13.8383 12.32 13.6043 12.4104 13.3859C12.5009 13.1675 12.6335 12.9691 12.8006 12.8019C12.9678 12.6348 13.1662 12.5022 13.3846 12.4117C13.603 12.3213 13.837 12.2747 14.0734 12.2747H19.6534L19.6552 12.2729ZM30.5632 17.9627L17.7004 30.8273L18.973 32.0999L31.8376 19.2371L30.5632 17.9627ZM17.7004 17.6999V21.2999H21.3004V17.6999H17.7004ZM28.5004 28.4999V32.0999H32.1004V28.4999H28.5004Z" fill="#FF4D7C"/>
</mask>
<g mask="url(#mask0_201_9055)">
<circle cx="15" cy="20" r="22" fill="#FF4D7C"/>
<circle cx="9" cy="13" r="22" fill="#FF5F89"/>
<circle cx="3" cy="6" r="22" fill="#FF7196"/>
</g>
</svg>
