<svg width="48" height="48" viewBox="0 0 48 48" fill="none" xmlns="http://www.w3.org/2000/svg">
<rect width="48" height="48" rx="2" fill="#FFE8EE"/>
<path d="M39.6331 24.2353C39.7368 24.2363 39.8402 24.2441 39.9428 24.2578V19.5736C39.9428 18.7829 39.6285 18.0249 39.0699 17.4659C38.7931 17.1892 38.4645 16.9696 38.1029 16.8198C37.7413 16.6701 37.3537 16.593 36.9623 16.593H11.5274C9.88141 16.593 8.54688 17.9275 8.54688 19.5736V24.3446C9.85891 24.3446 10.9224 25.4081 10.9224 26.7198C10.9224 28.0318 9.85891 29.0953 8.54688 29.0953V33.66C8.54793 35.3053 9.88211 36.6384 11.5274 36.6384H36.9623C37.754 36.6384 38.5134 36.3234 39.0727 35.7623C39.3495 35.4846 39.5688 35.1551 39.7182 34.7925C39.8675 34.43 39.9438 34.0415 39.9428 33.6494V28.9733C39.8402 28.9884 39.7364 28.9958 39.6331 28.9961C38.3211 28.9961 37.2576 27.9327 37.2576 26.6206C37.2576 25.3086 38.3211 24.2451 39.6331 24.2451V24.2353Z" fill="#FF3369"/>
<path d="M32.1704 24.4186C32.1704 25.6167 29.6113 25.6146 29.6113 24.4186V20.0814C29.6113 18.8833 32.1704 18.8854 32.1704 20.0814V24.4186ZM32.1704 33.1497C32.1704 34.3475 29.6113 34.3457 29.6113 33.1497V28.8121C29.6113 27.6143 32.1704 27.6161 32.1704 28.8121V33.1497Z" fill="white"/>
<path opacity="0.4" d="M37.5319 15.2792C37.1763 14.9297 36.7247 14.6938 36.2346 14.6017L14.0264 10.3963C12.5804 10.126 11.1925 11.142 10.9031 12.6685L10.3828 15.4156" fill="#FF3369"/>
</svg>
