<svg width="48" height="48" viewBox="0 0 48 48" fill="none" xmlns="http://www.w3.org/2000/svg">
<rect width="48" height="48" rx="2" fill="#FFE8EE"/>
<path d="M13.5 24H12V36C12 36.7956 12.3161 37.5587 12.8787 38.1213C13.4413 38.6839 14.2044 39 15 39H22.5V24H13.5ZM33 24H25.5V39H33C33.7956 39 34.5587 38.6839 35.1213 38.1213C35.6839 37.5587 36 36.7956 36 36V24H33ZM34.1865 16.5C34.4065 15.7707 34.5123 15.0117 34.5 14.25C34.5 11.355 32.145 9 29.25 9C26.817 9 25.1925 11.223 24.144 13.6275C23.1105 11.355 21.4035 9 18.75 9C15.855 9 13.5 11.355 13.5 14.25C13.5 15.144 13.6185 15.8835 13.8135 16.5H9V22.5H22.5V19.5H25.5V22.5H39V16.5H34.1865ZM16.5 14.25C16.5 13.0095 17.5095 12 18.75 12C20.082 12 21.321 14.2875 22.047 16.5H18C17.439 16.5 16.5 16.5 16.5 14.25ZM29.25 12C30.4905 12 31.5 13.0095 31.5 14.25C31.5 16.5 30.561 16.5 30 16.5H26.2845C27.0495 14.136 28.161 12 29.25 12Z" fill="#FF3369"/>
<mask id="mask0_201_9074" style="mask-type:alpha" maskUnits="userSpaceOnUse" x="9" y="9" width="30" height="30">
<path d="M13.5 24H12V36C12 36.7956 12.3161 37.5587 12.8787 38.1213C13.4413 38.6839 14.2044 39 15 39H22.5V24H13.5ZM33 24H25.5V39H33C33.7956 39 34.5587 38.6839 35.1213 38.1213C35.6839 37.5587 36 36.7956 36 36V24H33ZM34.1865 16.5C34.4065 15.7707 34.5123 15.0117 34.5 14.25C34.5 11.355 32.145 9 29.25 9C26.817 9 25.1925 11.223 24.144 13.6275C23.1105 11.355 21.4035 9 18.75 9C15.855 9 13.5 11.355 13.5 14.25C13.5 15.144 13.6185 15.8835 13.8135 16.5H9V22.5H22.5V19.5H25.5V22.5H39V16.5H34.1865ZM16.5 14.25C16.5 13.0095 17.5095 12 18.75 12C20.082 12 21.321 14.2875 22.047 16.5H18C17.439 16.5 16.5 16.5 16.5 14.25ZM29.25 12C30.4905 12 31.5 13.0095 31.5 14.25C31.5 16.5 30.561 16.5 30 16.5H26.2845C27.0495 14.136 28.161 12 29.25 12Z" fill="#FF3369"/>
</mask>
<g mask="url(#mask0_201_9074)">
<circle cx="16" cy="19" r="21" fill="#FF4D7C"/>
<circle cx="13" cy="15" r="19" fill="#FF5F89"/>
<circle cx="7" cy="7" r="16" fill="#FF7196"/>
</g>
</svg>
