<svg width="48" height="48" viewBox="0 0 48 48" fill="none" xmlns="http://www.w3.org/2000/svg">
<rect width="48" height="48" rx="2" fill="#FFEECE"/>
<path d="M30.8064 16.402L23.7468 9.7492C22.6272 8.6944 20.8794 8.6962 19.7616 9.7528L12.7254 16.402C12.4386 16.6735 12.21 17.0005 12.0537 17.3632C11.8975 17.7259 11.8167 18.1167 11.8164 18.5116V35.6962C11.8164 37.3 13.116 38.5996 14.7198 38.5996H28.8156C30.4194 38.5996 31.719 37.3 31.719 35.6962V18.5152C31.719 17.7142 31.3896 16.9492 30.8064 16.402ZM21.8388 14.1304C22.7586 14.1304 23.5038 14.8756 23.5038 15.7954C23.5038 16.7152 22.7586 17.4604 21.8388 17.4604C20.919 17.4604 20.1738 16.7152 20.1738 15.7954C20.1738 14.8756 20.919 14.1304 21.8388 14.1304ZM18.9102 32.971L20.748 27.6574H17.3586L23.0736 21.1378L22.7082 25.9834L25.7448 26.1346L18.9102 32.971ZM33.4128 22.5814L37.677 31.0018C38.1828 32.0008 37.8102 33.223 36.8328 33.7702L33.348 35.7196L33.4128 22.5814Z" fill="#FF8E12"/>
<path d="M23.7468 9.7492C22.6272 8.6944 20.8794 8.6962 19.7616 9.7528L12.7254 16.402C12.4386 16.6735 12.21 17.0005 12.0537 17.3632C11.8975 17.7259 11.8167 18.1167 11.8164 18.5116V34.942C13.8486 35.581 16.0104 35.9248 18.255 35.9248C23.3544 35.9248 28.038 34.1446 31.719 31.1728V18.5152C31.719 17.716 31.3896 16.951 30.8064 16.402L23.7468 9.7492ZM21.8388 14.1304C22.7586 14.1304 23.5038 14.8756 23.5038 15.7954C23.5038 16.7152 22.7586 17.4604 21.8388 17.4604C20.919 17.4604 20.1738 16.7152 20.1738 15.7954C20.1738 14.8756 20.919 14.1304 21.8388 14.1304ZM18.9102 32.971L20.748 27.6574H17.3586L23.0736 21.1378L22.7082 25.9834L25.7448 26.1346L18.9102 32.971ZM33.3786 29.6896C34.2102 28.8634 34.9734 27.9706 35.6592 27.0184L33.4128 22.5814L33.3786 29.6896Z" fill="#FCA315"/>
<path d="M30.8064 16.402L23.7468 9.7492C22.6272 8.6944 20.8794 8.6962 19.7616 9.7528L12.7254 16.402C12.4386 16.6735 12.21 17.0005 12.0537 17.3632C11.8975 17.7259 11.8167 18.1167 11.8164 18.5116V28.2982C12.0054 28.3036 12.1944 28.3054 12.3852 28.3054C14.1978 28.3054 15.9564 28.0804 17.6358 27.6574H17.3586L23.0736 21.1378L22.7334 25.6486C26.3514 23.6524 29.3304 20.6446 31.2906 17.0032C31.1574 16.7854 30.9972 16.5802 30.8064 16.402ZM21.8388 17.4622C20.919 17.4622 20.1738 16.717 20.1738 15.7972C20.1738 14.8774 20.919 14.1322 21.8388 14.1322C22.7586 14.1322 23.5038 14.8774 23.5038 15.7972C23.5038 16.717 22.7586 17.4622 21.8388 17.4622Z" fill="#FCB138"/>
<path d="M19.7616 9.75142L12.7254 16.4024C12.4386 16.6739 12.21 17.0009 12.0537 17.3636C11.8975 17.7263 11.8167 18.1171 11.8164 18.512V20.1662C14.8762 19.4611 17.7432 18.0906 20.2134 16.1522C20.1882 16.037 20.1738 15.9182 20.1738 15.7958C20.1738 14.876 20.919 14.1308 21.8388 14.1308C22.0224 14.1308 22.1988 14.1614 22.3644 14.2172C23.3462 13.2081 24.227 12.1055 24.9942 10.925L23.7468 9.74962C22.6272 8.69482 20.8794 8.69482 19.7616 9.75142Z" fill="#FFC65E"/>
</svg>
