<svg width="48" height="48" viewBox="0 0 48 48" fill="none" xmlns="http://www.w3.org/2000/svg">
<rect width="48" height="48" rx="2" fill="#FFEECE"/>
<path d="M24.4477 13.5771C17.2861 13.5771 11.4805 19.3828 11.4805 26.5444C11.4805 33.706 17.2861 39.5116 24.4477 39.5116C31.6093 39.5116 37.4149 33.706 37.4149 26.5444C37.4149 19.3828 31.6093 13.5771 24.4477 13.5771ZM23.8261 35.362V27.706H19.0261L24.9853 18.3532V25.0156H29.7037L23.8261 35.362Z" fill="#FF8E12"/>
<path d="M11.2476 19.3444C11.2476 19.3444 12.8628 15.7444 17.6628 13.3012C16.1724 10.9828 12.8196 9.96998 10.2132 12.2668C7.81563 14.3764 8.59803 18.3508 11.2476 19.3444Z" fill="#FFC65E"/>
<path d="M37.4197 19.3444C37.4197 19.3444 35.8045 15.7444 31.0045 13.3012C32.4949 10.9828 35.8477 9.96998 38.4541 12.2668C40.8517 14.3764 40.0693 18.3508 37.4197 19.3444ZM37.3813 25.6492C36.9205 18.9052 31.3093 13.5772 24.4477 13.5772C17.2861 13.5772 11.4805 19.3828 11.4805 26.5444C11.4805 30.9364 13.6645 34.8148 17.0053 37.1596C17.5117 37.1956 18.0205 37.2148 18.5365 37.2148C26.7613 37.2172 33.8917 32.5132 37.3813 25.6492ZM23.8261 35.362V27.706H19.0261L24.9853 18.3532V25.0156H29.7037L23.8261 35.362Z" fill="#FCA315"/>
<path d="M24.4477 13.5777C17.2861 13.5777 11.4805 19.3833 11.4805 26.5449C11.4805 27.6297 11.6149 28.6833 11.8669 29.6913C12.1621 29.7033 12.4573 29.7105 12.7549 29.7105C15.9733 29.7105 19.0237 28.9905 21.7549 27.7017H19.0261L24.9853 18.3489V25.0113H26.0365C28.8517 22.7313 31.0717 19.7457 32.4205 16.3209C30.2221 14.6049 27.4549 13.5777 24.4477 13.5777ZM31.0045 13.3017C31.7581 13.6857 32.4325 14.0961 33.0373 14.5185C33.3517 13.4457 33.5821 12.3393 33.7213 11.2065C32.6125 11.5665 31.6405 12.3153 31.0045 13.3017Z" fill="#FCB138"/>
<path d="M12.4434 21.6369C17.3562 20.4441 21.5946 17.5353 24.4938 13.5801H24.4482C19.0242 13.5777 14.3802 16.9089 12.4434 21.6369Z" fill="#FFC65E"/>
</svg>
