<svg width="48" height="48" viewBox="0 0 48 48" fill="none" xmlns="http://www.w3.org/2000/svg">
<rect width="48" height="48" rx="2" fill="#FFE8EE"/>
<path d="M23.335 17.1599H19.5801C19.518 18.4227 18.3381 19.4297 16.8891 19.4297C15.4401 19.4297 14.2664 18.4227 14.1981 17.1599H10.4431L6.53906 21.0453L9.47225 23.9692L10.4721 22.9664V34.0799H23.3061V22.9664L24.3059 23.9692L27.2391 21.0453L23.335 17.1599Z" fill="#FF3369" fill-opacity="0.2"/>
<path d="M37.0503 17.1599H33.328C33.2664 18.4227 32.0968 19.4297 30.6604 19.4297C29.224 19.4297 28.0605 18.4227 27.9928 17.1599H24.2705L20.4004 21.0453L23.3081 23.9692L24.2992 22.9664V34.0799H37.0216V22.9664L38.0127 23.9692L40.9204 21.0453L37.0503 17.1599Z" fill="#FF3369" fill-opacity="0.2"/>
<path d="M32.7581 13.3125H27.6562C27.5719 15.0338 25.9688 16.4063 24 16.4063C22.0313 16.4063 20.4366 15.0338 20.3438 13.3125H15.2419L9.9375 18.6084L13.9228 22.5938L15.2812 21.2269V36.375H32.7188V21.2269L34.0772 22.5938L38.0625 18.6084L32.7581 13.3125Z" fill="#FF3369"/>
</svg>
