<svg width="48" height="48" viewBox="0 0 48 48" fill="none" xmlns="http://www.w3.org/2000/svg">
<rect width="48" height="48" rx="2" fill="#FFE8EE"/>
<path fill-rule="evenodd" clip-rule="evenodd" d="M30.9652 39.2503C30.6458 38.5487 30.4679 37.7691 30.4679 36.9479C30.4679 33.8752 32.9589 31.3843 36.0315 31.3843C36.3177 31.3843 36.5988 31.4059 36.8733 31.4476L35.0508 16.2919C34.9193 15.1954 33.9078 14.3659 32.702 14.3659H30.9641C30.9055 10.0182 27.0271 6.5 22.2667 6.5C17.5063 6.5 13.63 10.0202 13.5693 14.3659H11.8315C10.6277 14.3659 9.61616 15.1954 9.48264 16.2919L7.01443 36.8509C6.86067 38.1315 7.95518 39.2503 9.36327 39.2503H30.9652ZM27.974 14.3659C27.9153 11.5295 25.3783 9.23931 22.2688 9.23931C19.1592 9.23931 16.6222 11.5295 16.5636 14.3659H27.974Z" fill="#FF3369"/>
<circle cx="36.0325" cy="36.948" r="4.55202" fill="#FF3369"/>
<path d="M35.0508 16.2939C34.9193 15.1973 33.9078 14.3678 32.702 14.3678H30.9641C30.9055 10.0202 27.0271 6.50195 22.2667 6.50195C17.5063 6.50195 13.63 10.0222 13.5693 14.3678H11.8315C10.6277 14.3678 9.61616 15.1973 9.48264 16.2939L7.01443 36.8528C6.86067 38.1335 7.95518 39.2522 9.36328 39.2522H24.8523C30.2014 36.1548 34.276 31.1072 36.1089 25.0823L35.0508 16.2939ZM22.2688 9.24126C25.3783 9.24126 27.9153 11.5314 27.974 14.3678H16.5636C16.6222 11.5314 19.1592 9.24126 22.2688 9.24126Z" fill="#FF4D7C"/>
<mask id="mask0_201_9043" style="mask-type:alpha" maskUnits="userSpaceOnUse" x="7" y="6" width="31" height="34">
<path d="M37.5231 36.8509L35.0508 16.2919C34.9193 15.1954 33.9078 14.3659 32.702 14.3659H30.9641C30.9055 10.0182 27.0271 6.5 22.2667 6.5C17.5063 6.5 13.63 10.0202 13.5693 14.3659H11.8315C10.6277 14.3659 9.61616 15.1954 9.48264 16.2919L7.01443 36.8509C6.86067 38.1315 7.95518 39.2503 9.36327 39.2503H35.1763C36.5823 39.2523 37.6769 38.1315 37.5231 36.8509ZM22.2688 9.23931C25.3783 9.23931 27.9153 11.5295 27.974 14.3659H16.5636C16.6222 11.5295 19.1592 9.23931 22.2688 9.23931Z" fill="#FF3369"/>
</mask>
<g mask="url(#mask0_201_9043)">
<circle cx="7.30326" cy="10.2428" r="24.1763" fill="#FF5F89"/>
</g>
<path d="M19.9015 14.3679H16.5634C16.622 11.5315 19.159 9.24133 22.2686 9.24133C22.3778 9.24133 22.4851 9.25145 22.5923 9.25549C22.9261 8.38555 23.2154 7.49133 23.4501 6.57486C23.0637 6.5263 22.6692 6.5 22.2686 6.5C17.5082 6.5 13.6319 10.0202 13.5712 14.3659H11.8333C10.6296 14.3659 9.618 15.1954 9.48448 16.2919L8.63477 23.3506C13.2293 21.5358 17.142 18.3798 19.9015 14.3679Z" fill="#FF7196"/>
<path d="M33.9082 34.4189V39.6791H34.7479V35.8334H34.7766L37.3386 39.6791H38.1568V34.4189H37.3099V38.213H37.2812L34.7479 34.4189H33.9082Z" fill="white"/>
</svg>
