<svg width="16" height="16" viewBox="0 0 16 16" fill="none" xmlns="http://www.w3.org/2000/svg">
<path d="M4.89515 4.97906V4.18341C4.89515 2.42472 6.19482 1 7.79742 1C9.40002 1 10.6997 2.42556 10.6997 4.18341V4.97821H9.81133V4.18341C9.81133 2.86777 8.87855 1.84553 7.79742 1.84553C6.7154 1.84553 5.78351 2.86777 5.78351 4.18341V4.97821H4.89515V4.97906ZM9.89128 4.97906C9.75498 5.01089 9.63386 5.08537 9.54736 5.19055C9.46085 5.29573 9.41397 5.42552 9.41423 5.55909C9.41423 5.88885 9.69317 6.15603 10.0361 6.15603C10.3799 6.15603 10.6579 5.88885 10.6579 5.55909C10.6582 5.42552 10.6113 5.29573 10.5248 5.19055C10.4383 5.08537 10.3172 5.01089 10.1809 4.97906H10.6997V4.18341L9.81133 4.97821H9.89128V4.97906ZM4.89515 4.18341C4.89515 2.42472 6.19482 1 7.79742 1C9.40002 1 10.6997 2.42556 10.6997 4.18341H12.0269C12.4471 4.18341 12.8015 4.47935 12.8557 4.87506L13.9928 13.1004C14.0084 13.2127 13.9986 13.327 13.964 13.4354C13.9294 13.5439 13.8709 13.6441 13.7923 13.7292C13.7137 13.8144 13.617 13.8827 13.5084 13.9293C13.3999 13.976 13.2822 14.0001 13.1631 14H2.83682C2.71903 14.0001 2.60253 13.9765 2.49498 13.9308C2.38743 13.8851 2.29124 13.8182 2.21273 13.7346C2.13422 13.6511 2.07516 13.5526 2.03941 13.4458C2.00367 13.339 1.99205 13.2261 2.00532 13.1147L2.98251 4.88943C3.00565 4.69518 3.10312 4.51583 3.25632 4.38561C3.40952 4.25539 3.60773 4.18342 3.81313 4.18341H4.89515ZM5.78351 4.18341H9.81133C9.81133 2.86777 8.87855 1.84553 7.79742 1.84553C6.7154 1.84553 5.78351 2.86777 5.78351 4.18341ZM5.56941 6.15603C5.91232 6.15603 6.19127 5.88885 6.19127 5.55909C6.19174 5.40159 6.12651 5.25035 6.00992 5.13858C5.89333 5.02682 5.73489 4.96366 5.56941 4.96299C5.22562 4.96299 4.94756 5.23018 4.94756 5.55909C4.94756 5.88885 5.22562 6.15603 5.56941 6.15603Z" fill="#666666"/>
</svg>
