<svg width="16" height="16" viewBox="0 0 16 16" fill="none" xmlns="http://www.w3.org/2000/svg">
<path d="M2.52878 12.6C2.14478 12.6 1.76078 12.312 1.76078 11.832V2.52805C1.76078 2.14405 2.04878 1.76005 2.52878 1.76005H11.8408C12.2248 1.76005 12.6088 2.04805 12.6088 2.52805C12.6088 2.81605 12.8008 3.00805 13.0888 3.00805C13.3768 3.00805 13.5688 2.81605 13.5688 2.52805C13.5688 1.56805 12.8008 0.800049 11.8408 0.800049H2.52878C1.56878 0.800049 0.800781 1.56805 0.800781 2.52805V11.928C0.800781 12.888 1.56878 13.656 2.52878 13.656C2.81678 13.656 3.00878 13.368 3.00878 13.08C3.00878 12.8 2.81678 12.6 2.52878 12.6Z" fill="#5D5D5F"/>
<path d="M13.568 3.57593H5.21598C4.35198 3.57593 3.58398 4.34393 3.58398 5.20793V13.5599C3.58398 14.4239 4.35198 15.1919 5.21598 15.1919H13.568C14.528 15.1919 15.2 14.5199 15.2 13.5599V5.21593C15.192 4.34393 14.424 3.57593 13.568 3.57593ZM11.472 8.87193L8.76798 11.5759L8.75998 11.5839C8.75198 11.5919 8.73598 11.5999 8.71998 11.6159C8.67998 11.6559 8.63198 11.6799 8.56798 11.7039L7.13598 12.0879H7.11198C7.08798 12.0879 7.05598 12.0719 7.03998 12.0559C7.02398 12.0399 7.01598 12.0159 7.02398 11.9759L7.40798 10.5359C7.42398 10.4639 7.47198 10.3999 7.52798 10.3599L7.54398 10.3519L10.256 7.63993C10.28 7.61593 10.304 7.61593 10.32 7.61593C10.336 7.61593 10.36 7.61593 10.384 7.63993L11.48 8.73593C11.504 8.75993 11.504 8.78393 11.504 8.79993C11.504 8.82393 11.496 8.84793 11.472 8.87193ZM11.84 8.50393H11.824L10.608 7.28793V7.27193C10.728 7.15193 11.224 6.54393 11.784 7.01593L12.096 7.32793C12.544 7.72793 12.096 8.24793 11.84 8.50393Z" fill="#5D5D5F"/>
</svg>
