<svg width="16" height="16" viewBox="0 0 16 16" fill="none" xmlns="http://www.w3.org/2000/svg">
<path d="M13.956 3.64791C14.2638 3.94229 14.4446 4.31228 14.4991 4.75572V12.8459C14.4813 13.3351 14.3134 13.732 13.9966 14.0353C13.6799 14.3385 13.2955 14.4946 12.8427 14.5046H3.20148C2.71289 14.4867 2.31664 14.3187 2.01367 14.0015C1.7107 13.6843 1.55383 13.2993 1.54492 12.8459V3.19244C1.56273 2.70307 1.7307 2.30635 2.04742 2.00307C2.36414 1.69979 2.74867 1.54354 3.20148 1.53369H6.41914C6.64555 1.5426 6.86898 1.60432 7.09148 1.71775C7.31289 1.83104 7.49164 1.97432 7.62773 2.14635L8.15711 2.75791C8.23852 2.89416 8.33086 3.00057 8.43524 3.07713C8.53945 3.15479 8.67758 3.1926 8.8493 3.1926H12.7602C13.2499 3.20135 13.648 3.35354 13.956 3.64791ZM11.0529 8.46119C10.963 8.23025 10.7671 8.12979 10.4615 8.16104H9.24867V6.34604C9.24867 5.93619 9.04352 5.73072 8.63414 5.73072H7.43508C7.27711 5.74119 7.13758 5.80697 7.01773 5.92807C6.89664 6.04932 6.83102 6.189 6.82055 6.34604V8.16088H5.51195C5.40695 8.16088 5.30898 8.1851 5.22023 8.23244C5.13039 8.27979 5.05992 8.35604 5.00695 8.46104C4.95398 8.56604 4.9332 8.66885 4.94352 8.76916C4.95383 8.86963 5.00695 8.96666 5.10148 9.06119L7.6243 11.697C7.67727 11.7501 7.73492 11.794 7.79727 11.8309C7.8607 11.8678 7.93898 11.892 8.03367 11.9024C8.1282 11.9451 8.20664 11.9498 8.27008 11.9187C8.33352 11.8874 8.39117 11.8448 8.44305 11.7928L10.9652 9.06244C11.1127 8.89291 11.1416 8.69197 11.0529 8.46119Z" fill="#666666"/>
</svg>
