<svg width="20" height="20" viewBox="0 0 20 20" fill="none" xmlns="http://www.w3.org/2000/svg">
<mask id="path-1-inside-1_201_10301" fill="white">
<path fill-rule="evenodd" clip-rule="evenodd" d="M9.11591 3.86124V3.32681H10.885V3.85748C10.6003 3.81718 10.3093 3.79633 10.0135 3.79633C9.70867 3.79633 9.40897 3.81847 9.11591 3.86124ZM7.7891 4.20993V2.44227C7.7891 2.19801 7.98711 2 8.23137 2H11.7695C12.0138 2 12.2118 2.19801 12.2118 2.44227V4.19989C12.8269 4.43467 13.395 4.7651 13.8983 5.17311L15.4289 4.28507C15.6408 4.16212 15.9123 4.23486 16.0344 4.44729L17.8051 7.52932C17.9264 7.74047 17.8542 8.00997 17.6435 8.13218L16.1249 9.01327C16.1778 9.3405 16.2053 9.6763 16.2053 10.0186C16.2053 10.3529 16.1791 10.681 16.1286 11.001L17.6187 11.8656C17.8293 11.9878 17.9016 12.2573 17.7802 12.4684L16.0095 15.5505C15.8875 15.7629 15.616 15.8356 15.4041 15.7127L13.9162 14.8494C13.4085 15.2641 12.8342 15.5997 12.2118 15.8372V17.5577C12.2118 17.802 12.0138 18 11.7695 18H8.23137C7.98711 18 7.7891 17.802 7.7891 17.5577V15.8272C7.16918 15.5873 6.59736 15.2501 6.09217 14.8341L4.61999 15.6883C4.40808 15.8112 4.1366 15.7385 4.01455 15.5261L2.24385 12.444C2.12253 12.2329 2.19474 11.9634 2.40539 11.8412L3.89474 10.9771C3.84667 10.6646 3.82173 10.3445 3.82173 10.0186C3.82173 9.68463 3.8479 9.35685 3.8983 9.03718L2.38055 8.1566C2.16991 8.03439 2.0977 7.76489 2.21901 7.55373L3.98972 4.4717C4.11177 4.25928 4.38324 4.18653 4.59515 4.30948L6.10998 5.18836C6.61078 4.77915 7.17645 4.44701 7.7891 4.20993ZM5.15103 6.16595L4.69766 5.90291L3.80825 7.45098L4.26054 7.71339C4.48317 7.1528 4.78458 6.63238 5.15103 6.16595ZM4.25252 12.3034L3.83309 12.5468L4.72249 14.0949L5.13761 13.854C4.77282 13.3863 4.47321 12.8649 4.25252 12.3034ZM9.11591 16.1759V16.6732H10.885V16.1796C10.6003 16.2199 10.3093 16.2408 10.0135 16.2408C9.70867 16.2408 9.40897 16.2186 9.11591 16.1759ZM14.8754 13.872L15.3016 14.1193L16.191 12.5712L15.7661 12.3247C15.5434 12.8852 15.2419 13.4056 14.8754 13.872ZM15.758 7.69217L16.2158 7.42656L15.3264 5.8785L14.8619 6.14803C15.2301 6.61316 15.5334 7.13249 15.758 7.69217Z"/>
</mask>
<path d="M9.11591 3.32681V2H7.7891V3.32681H9.11591ZM9.11591 3.86124H7.7891V5.39573L9.30751 5.17414L9.11591 3.86124ZM10.885 3.32681H12.2118V2H10.885V3.32681ZM10.885 3.85748L10.699 5.1712L12.2118 5.38534V3.85748H10.885ZM7.7891 4.20993L8.26794 5.44732L9.11591 5.11918V4.20993H7.7891ZM12.2118 4.19989H10.885V5.1136L11.7386 5.43946L12.2118 4.19989ZM13.8983 5.17311L13.0628 6.20379L13.7732 6.77968L14.5642 6.32075L13.8983 5.17311ZM15.4289 4.28507L14.7631 3.13742L14.7631 3.13743L15.4289 4.28507ZM16.0344 4.44729L17.1848 3.78632L17.1848 3.78632L16.0344 4.44729ZM17.8051 7.52932L16.6546 8.19028L16.6546 8.19029L17.8051 7.52932ZM17.6435 8.13218L18.3094 9.27983V9.27983L17.6435 8.13218ZM16.1249 9.01327L15.4591 7.86562L14.6694 8.32377L14.8151 9.22499L16.1249 9.01327ZM16.1286 11.001L14.818 10.7942L14.6762 11.6923L15.4627 12.1487L16.1286 11.001ZM17.6187 11.8656L18.2845 10.7179V10.7179L17.6187 11.8656ZM17.7802 12.4684L16.6298 11.8075V11.8075L17.7802 12.4684ZM16.0095 15.5505L17.16 16.2114V16.2114L16.0095 15.5505ZM15.4041 15.7127L14.7382 16.8603L14.7383 16.8603L15.4041 15.7127ZM13.9162 14.8494L14.5821 13.7018L13.7879 13.2411L13.0769 13.8219L13.9162 14.8494ZM12.2118 15.8372L11.7386 14.5977L10.885 14.9235V15.8372H12.2118ZM7.7891 15.8272H9.11591V14.9179L8.26794 14.5898L7.7891 15.8272ZM6.09217 14.8341L6.93549 13.8098L6.22375 13.2238L5.42632 13.6865L6.09217 14.8341ZM4.61999 15.6883L3.95414 14.5406H3.95414L4.61999 15.6883ZM4.01455 15.5261L2.8641 16.187L2.8641 16.187L4.01455 15.5261ZM2.24385 12.444L3.39431 11.7831L3.3943 11.7831L2.24385 12.444ZM2.40539 11.8412L3.07123 12.9888H3.07123L2.40539 11.8412ZM3.89474 10.9771L4.56059 12.1247L5.34383 11.6703L5.20612 10.7753L3.89474 10.9771ZM3.8983 9.03718L5.20893 9.24382L5.35051 8.34578L4.56415 7.88954L3.8983 9.03718ZM2.38055 8.1566L1.7147 9.30424L1.7147 9.30424L2.38055 8.1566ZM2.21901 7.55373L3.36947 8.2147L3.36947 8.2147L2.21901 7.55373ZM3.98972 4.4717L2.83926 3.81073L2.83926 3.81074L3.98972 4.4717ZM4.59515 4.30948L5.261 3.16184L5.261 3.16184L4.59515 4.30948ZM6.10998 5.18836L5.44413 6.336L6.23842 6.79684L6.94951 6.2158L6.10998 5.18836ZM4.69766 5.90291L5.3635 4.75527L4.21098 4.08659L3.5472 5.24194L4.69766 5.90291ZM5.15103 6.16595L6.19436 6.98565L7.13787 5.78473L5.81688 5.01831L5.15103 6.16595ZM3.80825 7.45098L2.65779 6.79001L1.99962 7.93559L3.1424 8.59862L3.80825 7.45098ZM4.26054 7.71339L3.59469 8.86103L4.9257 9.63327L5.49367 8.2031L4.26054 7.71339ZM4.25252 12.3034L5.48737 11.8181L4.92244 10.3808L3.58668 11.1558L4.25252 12.3034ZM3.83309 12.5468L3.16724 11.3991L2.02446 12.0622L2.68263 13.2078L3.83309 12.5468ZM4.72249 14.0949L3.57203 14.7558L4.23581 15.9112L5.38834 15.2425L4.72249 14.0949ZM5.13761 13.854L5.80346 15.0016L7.1198 14.2379L6.18379 13.038L5.13761 13.854ZM9.11591 16.6732H7.7891V18H9.11591V16.6732ZM9.11591 16.1759L9.30751 14.863L7.7891 14.6414V16.1759H9.11591ZM10.885 16.6732V18H12.2118V16.6732H10.885ZM10.885 16.1796H12.2118V14.6518L10.699 14.8659L10.885 16.1796ZM15.3016 14.1193L14.6357 15.2669L15.7883 15.9356L16.4521 14.7802L15.3016 14.1193ZM14.8754 13.872L13.8322 13.0521L12.8883 14.2531L14.2095 15.0196L14.8754 13.872ZM16.191 12.5712L17.3415 13.2322L17.9996 12.0866L16.8568 11.4236L16.191 12.5712ZM15.7661 12.3247L16.432 11.177L15.1012 10.4049L14.5331 11.8348L15.7661 12.3247ZM16.2158 7.42656L16.8817 8.5742L18.0245 7.91118L17.3663 6.76559L16.2158 7.42656ZM15.758 7.69217L14.5267 8.18643L15.0978 9.60918L16.4239 8.83981L15.758 7.69217ZM15.3264 5.8785L16.4769 5.21753L15.8131 4.06217L14.6606 4.73085L15.3264 5.8785ZM14.8619 6.14803L14.196 5.00039L12.8701 5.76964L13.8215 6.97153L14.8619 6.14803ZM7.7891 3.32681V3.86124H10.4427V3.32681H7.7891ZM10.885 2H9.11591V4.65363H10.885V2ZM12.2118 3.85748V3.32681H9.55818V3.85748H12.2118ZM10.0135 5.12315C10.2469 5.12315 10.4757 5.13959 10.699 5.1712L11.071 2.54376C10.7248 2.49477 10.3717 2.46952 10.0135 2.46952V5.12315ZM9.30751 5.17414C9.53732 5.14061 9.77299 5.12315 10.0135 5.12315V2.46952C9.64434 2.46952 9.28061 2.49634 8.92432 2.54833L9.30751 5.17414ZM6.46229 2.44227V4.20993H9.11591V2.44227H6.46229ZM8.23137 0.673187C7.25433 0.673187 6.46229 1.46523 6.46229 2.44227H9.11591C9.11591 2.93079 8.71989 3.32681 8.23137 3.32681V0.673187ZM11.7695 0.673187H8.23137V3.32681H11.7695V0.673187ZM13.5386 2.44227C13.5386 1.46523 12.7466 0.673187 11.7695 0.673187V3.32681C11.281 3.32681 10.885 2.93079 10.885 2.44227H13.5386ZM13.5386 4.19989V2.44227H10.885V4.19989H13.5386ZM11.7386 5.43946C12.2204 5.62338 12.6666 5.88266 13.0628 6.20379L14.7339 4.14242C14.1234 3.64755 13.4333 3.24596 12.685 2.96032L11.7386 5.43946ZM14.7631 3.13743L13.2325 4.02547L14.5642 6.32075L16.0948 5.43271L14.7631 3.13743ZM17.1848 3.78632C16.6966 2.9366 15.6107 2.64564 14.7631 3.13742L16.0948 5.43271C15.671 5.6786 15.128 5.53312 14.8839 5.10827L17.1848 3.78632ZM18.9555 6.86835L17.1848 3.78632L14.8839 5.10826L16.6546 8.19028L18.9555 6.86835ZM18.3094 9.27983C19.1519 8.79098 19.4408 7.71298 18.9555 6.86835L16.6546 8.19029C16.412 7.76797 16.5564 7.22896 16.9777 6.98454L18.3094 9.27983ZM16.7908 10.1609L18.3094 9.27983L16.9777 6.98454L15.4591 7.86562L16.7908 10.1609ZM14.8151 9.22499C14.8567 9.48248 14.8785 9.74748 14.8785 10.0186H17.5321C17.5321 9.60512 17.4989 9.19852 17.4347 8.80154L14.8151 9.22499ZM14.8785 10.0186C14.8785 10.2833 14.8577 10.5423 14.818 10.7942L17.4392 11.2079C17.5004 10.8197 17.5321 10.4224 17.5321 10.0186H14.8785ZM18.2845 10.7179L16.7944 9.85338L15.4627 12.1487L16.9529 13.0132L18.2845 10.7179ZM18.9307 13.1294C19.416 12.2848 19.1271 11.2068 18.2845 10.7179L16.9529 13.0132C16.5316 12.7688 16.3871 12.2298 16.6298 11.8075L18.9307 13.1294ZM17.16 16.2114L18.9307 13.1294L16.6298 11.8075L14.8591 14.8895L17.16 16.2114ZM14.7383 16.8603C15.5859 17.3521 16.6718 17.0612 17.16 16.2114L14.8591 14.8895C15.1032 14.4646 15.6461 14.3192 16.0699 14.5651L14.7383 16.8603ZM13.2504 15.9971L14.7382 16.8603L16.0699 14.5651L14.5821 13.7018L13.2504 15.9971ZM13.0769 13.8219C12.6772 14.1483 12.2262 14.4115 11.7386 14.5977L12.685 17.0768C13.4422 16.7878 14.1398 16.38 14.7556 15.877L13.0769 13.8219ZM13.5386 17.5577V15.8372H10.885V17.5577H13.5386ZM11.7695 19.3268C12.7466 19.3268 13.5386 18.5348 13.5386 17.5577H10.885C10.885 17.0692 11.281 16.6732 11.7695 16.6732V19.3268ZM8.23137 19.3268H11.7695V16.6732H8.23137V19.3268ZM6.46229 17.5577C6.46229 18.5348 7.25433 19.3268 8.23137 19.3268V16.6732C8.71989 16.6732 9.11591 17.0692 9.11591 17.5577H6.46229ZM6.46229 15.8272V17.5577H9.11591V15.8272H6.46229ZM8.26794 14.5898C7.78229 14.4018 7.33316 14.1372 6.93549 13.8098L5.24885 15.8585C5.86156 16.3629 6.55608 16.7727 7.31026 17.0646L8.26794 14.5898ZM5.28584 16.8359L6.75802 15.9818L5.42632 13.6865L3.95414 14.5406L5.28584 16.8359ZM2.8641 16.187C3.35229 17.0367 4.4382 17.3277 5.28584 16.8359L3.95414 14.5406C4.37796 14.2947 4.92092 14.4402 5.16501 14.8651L2.8641 16.187ZM1.09339 13.105L2.8641 16.187L5.16501 14.8651L3.39431 11.7831L1.09339 13.105ZM1.73954 10.6935C0.896976 11.1824 0.608125 12.2604 1.09339 13.105L3.3943 11.7831C3.63694 12.2054 3.49251 12.7444 3.07123 12.9888L1.73954 10.6935ZM3.22889 9.82942L1.73954 10.6935L3.07123 12.9888L4.56059 12.1247L3.22889 9.82942ZM5.20612 10.7753C5.16829 10.5294 5.14854 10.2767 5.14854 10.0186H2.49491C2.49491 10.4123 2.52505 10.7999 2.58336 11.1788L5.20612 10.7753ZM5.14854 10.0186C5.14854 9.75407 5.16926 9.49538 5.20893 9.24382L2.58768 8.83054C2.52654 9.21833 2.49491 9.61519 2.49491 10.0186H5.14854ZM1.7147 9.30424L3.23245 10.1848L4.56415 7.88954L3.0464 7.00896L1.7147 9.30424ZM1.06856 6.89276C0.583293 7.73739 0.872141 8.81539 1.7147 9.30424L3.0464 7.00896C3.46768 7.25338 3.6121 7.79238 3.36947 8.2147L1.06856 6.89276ZM2.83926 3.81074L1.06856 6.89276L3.36947 8.2147L5.14018 5.13267L2.83926 3.81074ZM5.261 3.16184C4.41337 2.67005 3.32745 2.96102 2.83926 3.81073L5.14017 5.13268C4.89608 5.55753 4.35312 5.70302 3.92931 5.45712L5.261 3.16184ZM6.77582 4.04072L5.261 3.16184L3.92931 5.45712L5.44413 6.336L6.77582 4.04072ZM6.94951 6.2158C7.3437 5.8937 7.78798 5.63305 8.26794 5.44732L7.31026 2.97254C6.56492 3.26096 5.87786 3.6646 5.27044 4.16093L6.94951 6.2158ZM4.03181 7.05055L4.48519 7.3136L5.81688 5.01831L5.3635 4.75527L4.03181 7.05055ZM4.95871 8.11194L5.84811 6.56388L3.5472 5.24194L2.65779 6.79001L4.95871 8.11194ZM4.92639 6.56575L4.4741 6.30333L3.1424 8.59862L3.59469 8.86103L4.92639 6.56575ZM5.49367 8.2031C5.66862 7.76256 5.90571 7.35306 6.19436 6.98565L4.10771 5.34626C3.66346 5.91171 3.29771 6.54304 3.02741 7.22367L5.49367 8.2031ZM3.58668 11.1558L3.16724 11.3991L4.49893 13.6944L4.91837 13.4511L3.58668 11.1558ZM2.68263 13.2078L3.57203 14.7558L5.87295 13.4339L4.98354 11.8858L2.68263 13.2078ZM5.38834 15.2425L5.80346 15.0016L4.47176 12.7064L4.05664 12.9472L5.38834 15.2425ZM6.18379 13.038C5.89645 12.6696 5.66079 12.2593 5.48737 11.8181L3.01768 12.7888C3.28562 13.4705 3.64919 14.1031 4.09143 14.6701L6.18379 13.038ZM10.4427 16.6732V16.1759H7.7891V16.6732H10.4427ZM10.885 15.3464H9.11591V18H10.885V15.3464ZM9.55818 16.1796V16.6732H12.2118V16.1796H9.55818ZM10.699 14.8659C10.4757 14.8975 10.2469 14.914 10.0135 14.914V17.5676C10.3717 17.5676 10.7248 17.5423 11.071 17.4933L10.699 14.8659ZM10.0135 14.914C9.773 14.914 9.53732 14.8965 9.30751 14.863L8.92432 17.4888C9.28061 17.5408 9.64434 17.5676 10.0135 17.5676V14.914ZM15.9674 12.9716L15.5412 12.7243L14.2095 15.0196L14.6357 15.2669L15.9674 12.9716ZM15.0405 11.9102L14.1511 13.4583L16.4521 14.7802L17.3415 13.2322L15.0405 11.9102ZM15.1003 13.4723L15.5252 13.7188L16.8568 11.4236L16.432 11.177L15.1003 13.4723ZM14.5331 11.8348C14.358 12.2753 14.1209 12.6847 13.8322 13.0521L15.9185 14.6918C16.3629 14.1265 16.7288 13.4952 16.9992 12.8146L14.5331 11.8348ZM15.55 6.27892L15.0922 6.54453L16.4239 8.83981L16.8817 8.5742L15.55 6.27892ZM14.176 6.53946L15.0654 8.08753L17.3663 6.76559L16.4769 5.21753L14.176 6.53946ZM15.5277 7.29567L15.9923 7.02614L14.6606 4.73085L14.196 5.00039L15.5277 7.29567ZM13.8215 6.97153C14.1116 7.33793 14.3502 7.74658 14.5267 8.18643L16.9893 7.19792C16.7166 6.51839 16.3485 5.8884 15.9022 5.32452L13.8215 6.97153Z" fill="#B1B2B6" mask="url(#path-1-inside-1_201_10301)"/>
<circle cx="10" cy="10" r="2" stroke="#B1B2B6" stroke-width="1.32681"/>
</svg>
